<svg width="1501" height="740" viewBox="0 0 1501 740" fill="none" xmlns="http://www.w3.org/2000/svg">
<g clip-path="url(#clip0_560_824)">
<path d="M285.924 0H212.956V115.885H285.924V0Z" fill="#5F6F73"/>
<path d="M155.454 682.255C115.004 682.255 100.728 667.226 100.728 624.115V239.679H168.937V180.353H101.124V7.11914H28.1561V179.957H0V239.284H28.1561V624.115C28.1561 698.867 67.0195 740 137.212 740C147.522 740 161.799 738.418 169.333 735.254L170.92 734.463V680.673L167.351 681.464C164.178 682.255 159.419 682.255 155.454 682.255Z" fill="#5F6F73"/>
<path d="M285.924 179.957H212.956V732.09H285.924V179.957Z" fill="#5F6F73"/>
<path d="M429.877 0H356.909V732.09H429.877V0Z" fill="#5F6F73"/>
<path d="M598.021 171.256C528.225 171.256 490.948 210.807 490.948 286.35V627.279C490.948 702.426 527.036 740.395 598.021 740.395C670.592 740.395 709.059 701.24 709.059 627.279V504.276H640.057V627.279C640.057 658.129 626.177 673.159 598.021 673.159C571.451 673.159 558.761 658.525 558.761 627.279V465.12H708.663V286.35C708.663 210.807 670.592 171.256 598.021 171.256ZM598.021 240.47C625.78 240.47 640.057 255.895 640.057 286.35V414.89H559.157V286.35C558.761 255.104 571.451 240.47 598.021 240.47Z" fill="#5F6F73"/>
<path d="M914.48 171.256C886.324 171.256 860.547 182.33 844.288 201.315V0H771.32V732.09H812.166L812.959 730.112C817.321 717.851 820.494 706.777 822.477 696.494C840.719 723.784 868.082 738.022 902.583 738.022C972.379 738.022 1004.5 701.635 1004.5 624.115V274.88C1004.9 203.292 976.741 171.256 914.48 171.256ZM933.119 279.23V625.302C933.119 656.152 922.015 668.413 893.065 668.413C870.461 668.413 852.219 655.756 844.288 634.399V273.298C853.409 248.776 875.617 240.075 893.065 240.075C920.825 240.47 933.119 251.94 933.119 279.23Z" fill="#5F6F73"/>
<path d="M1279.32 666.435V281.603C1279.32 208.434 1242.84 171.256 1170.26 171.256C1097.69 171.256 1062.4 207.247 1062.4 281.603V399.861H1127.44V282.79C1127.44 254.313 1134.18 238.097 1168.28 238.097C1197.23 238.097 1209.13 251.149 1209.13 282.79V399.861C1129.42 429.92 1054.47 459.188 1054.47 570.326V650.615C1054.47 709.941 1084.61 740 1144.09 740C1173.44 740 1196.83 728.53 1213.49 705.591C1213.89 715.478 1215.08 723.784 1217.46 730.112L1218.25 732.09H1284.87L1283.68 728.53C1279.72 713.896 1279.32 686.211 1279.32 666.435ZM1209.52 454.046V643.1C1203.58 663.666 1189.3 675.136 1168.68 675.136C1139.33 675.136 1125.85 661.689 1125.85 632.817V574.677C1125.45 511.79 1133.78 478.963 1209.52 454.046Z" fill="#5F6F73"/>
<path d="M1499.41 178.375C1494.66 176.398 1486.33 174.816 1478 174.816C1447.07 174.816 1423.67 187.076 1407.41 212.389C1407.01 202.501 1406.22 192.218 1404.63 182.33L1404.24 179.957H1342.37V732.09H1415.34V276.066C1425.65 255.895 1443.5 245.612 1468.09 245.612C1477.6 245.612 1490.29 247.194 1496.64 251.149L1501 253.918V178.771L1499.41 178.375Z" fill="#5F6F73"/>
</g>
<defs>
<clipPath id="clip0_560_824">
<rect width="1501" height="740" fill="white"/>
</clipPath>
</defs>
</svg>
